{"title":"Vicente Aranda - Amantes (1991)","uid":5869040,"size":1437492184,"categoryP":"video","categoryS":"movies","magnet":"?xt=urn:btih:68beeaef95c4240e78b882d2f12cc8f397d0258d&amp;dn=Vicente+Aranda+-+Amantes+%281991%29&amp;tr=udp%3A%2F%2Ftracker.openbittorrent.com%3A80&amp;tr=udp%3A%2F%2Fopen.demonii.com%3A1337&amp;tr=udp%3A%2F%2Ftracker.coppersurfer.tk%3A6969&amp;tr=udp%3A%2F%2Fexodus.desync.com%3A6969","seeders":11,"leechers":0,"uploader":"mfccorrea","files":4,"time":1286390279,"description":"Vicente Aranda's Lovers is set in Spain, mostly in Madrid, during the 1950s. The story line is reminiscent of Theodore Dreiser's classic An American Tragedy (which was filmed as A Place in the Sun), wherein a passive, amoral, and shallow protagonist inadvertently destroys the lives of two women who love him. The handsome Paco (Jorge Sanz, who also starred in Belle Epoque and has been called &quot;the Spanish Tom Cruise&quot;) is a young soldier involved with a virginal maid, Trini (Maribel Verdu of Y Tu Mama Tambien). Trini is saving her money and planning for their wedding, but Paco tells her not to worry, that he will find a job and save money for them. Paco leaves the army, but has trouble finding and keeping a steady job. He ends up renting a cheap room from Luisa (Spanish superstar Victoria Abril, best known for her work in Pedro Almodovar's films), a beautiful and mysterious widow. Before long, Luisa has seduced the sexually frustrated Paco, and involved him in her moneymaking scams. Trini quickly figures out what is going on, and makes a desperate effort to win back Paco's affection. Paco is obsessed with the sexually experienced and voracious older woman, but is unable to break off his long-term relationship with Trini. He attempts to string them both along, with disastrous results. The film was the first of veteran filmmaker Aranda to get a theatrical release in the United States, thanks largely to Abril's star power, and caused a minor sensation with its sexual explicitness, in particular the infamous &quot;handkerchief scene.&quot; \n\n   General\n      Complete name : Amantes.avi\n      Format : AVI\n      Format/Info : Audio Video Interleave\n      File size : 1.34 GiB\n      Duration : 1h 39mn\n      Overall bit rate : 1 927 Kbps\n      Writing application : FairUse Wizard - http://fairusewizard.com\n      Writing library : The best and REALLY easy backup tool\n   Video #0\n      ID : 0\n      Format : MPEG-4 Visual\n      Format profile : AdvancedSimple@L5\n      Format settings, BVOP : Yes\n      Format settings, QPel : No\n      Format settings, GMC : No warppoints\n      Format settings, Matrix : Default (MPEG)\n      Muxing mode : Packed bitstream\n      Codec ID : XVID\n      Codec ID/Hint : XviD\n      Duration : 1h 39mn\n      Bit rate : 1 533 Kbps\n      Width : 640 pixels\n      Height : 368 pixels\n      Display aspect ratio : 16:9\n      Frame rate : 25.000 fps\n      Resolution : 24 bits\n      Colorimetry : 4:2:0\n      Scan type : Progressive\n      Bits/(Pixel*Frame) : 0.260\n      Stream size : 1.07 GiB (80%)\n      Writing library : XviD 1.2.0.dev47 (UTC 2006-11-01)\n   Audio #1\n      ID : 1\n      Format : AC-3\n      Format/Info : Audio Coding 3\n      Format profile : Dolby Digital\n      Codec ID : 2000\n      Duration : 1h 39mn\n      Bit rate mode : Constant\n      Bit rate : 384 Kbps\n      Channel(s) : 2 channels\n      Channel positions : L R\n      Sampling rate : 48.0 KHz\n      Stream size : 273 MiB (20%)\n      Alignment : Split accross interleaves\n      Interleave, duration : 40 ms (1.00 video frame)\n      Interleave, preload duration : 500 ms\n &lt;a href=&quot;\nhttp://www.imdb.com/title/tt0101317/&quot; rel=&quot;nofollow&quot; target=&quot;_NEW&quot;&gt;\nhttp://www.imdb.com/title/tt0101317/&lt;/a&gt;\n\nSpanish audio; English and Portuguese subtitles\n\nVicente Aranda - Amantes (1991)","torrent":{"xt":"urn:btih:68beeaef95c4240e78b882d2f12cc8f397d0258d","amp;dn":"Vicente+Aranda+-+Amantes+%281991%29","amp;tr":["udp%3A%2F%2Ftracker.openbittorrent.com%3A80","udp%3A%2F%2Fopen.demonii.com%3A1337","udp%3A%2F%2Ftracker.coppersurfer.tk%3A6969","udp%3A%2F%2Fexodus.desync.com%3A6969"],"infoHash":"68beeaef95c4240e78b882d2f12cc8f397d0258d","infoHashBuffer":{"type":"Buffer","data":[104,190,234,239,149,196,36,14,120,184,130,210,241,44,200,243,151,208,37,141]},"announce":[],"urlList":[]}}